<svg width="180" height="65" viewBox="0 0 180 65" fill="none" xmlns="http://www.w3.org/2000/svg"><path d="M60.5 53.44C59.36 51.95 57.53 50.69 56.1 49.72C53.02 47.67 50.16 46.18 47.07 45.04L32.44 4.74C32.38 4.46 32.04 3.49 31.3 2.46C30.1 0.86 28.5 0 26.73 0C24.9 0 23.3 0.86 22.15 2.46C21.41 3.49 21.07 4.46 21.01 4.74L0.09 62.01C-0.19 62.81 0.21 63.73 1.01 64.01C1.18 64.07 1.35 64.13 1.52 64.13C2.04 64.13 2.49 63.9 2.78 63.5C2.84 63.44 2.89 63.38 2.89 63.33C5.98 58.07 10.44 53.67 15.69 50.58C21.12 47.44 27.35 45.72 33.7 45.72C36.56 45.72 39.41 46.07 42.16 46.75C43.01 46.98 43.81 47.21 44.61 47.49L47.3 54.87C47.3 54.92 48.39 57.72 49.13 59.67C50.04 61.95 51.7 63.44 53.82 63.95C54.27 64.07 54.73 64.13 55.13 64.13C56.84 64.13 58.56 63.44 59.82 62.24C61.13 60.98 61.87 59.44 61.87 57.67C61.93 56.12 61.42 54.58 60.5 53.44ZM14.21 47.89C11.35 49.55 8.72 51.61 6.38 53.9L23.87 5.66C23.87 5.66 24.15 4.92 24.61 4.23C25.12 3.49 25.75 3.09 26.67 3.09C27.58 3.09 28.21 3.49 28.73 4.23C29.24 4.92 29.47 5.6 29.47 5.66L43.3 43.78C40.21 42.98 37.01 42.58 33.76 42.58C26.84 42.64 20.1 44.46 14.21 47.89ZM57.76 59.95C56.84 60.81 55.59 61.21 54.5 60.92C53.42 60.7 52.56 59.84 52.04 58.52C51.3 56.64 50.27 53.95 50.22 53.78L48.5 48.98C50.44 49.89 52.39 50.98 54.39 52.29C55.64 53.15 57.19 54.24 58.05 55.32C58.85 56.35 59.42 58.35 57.76 59.95Z" fill="url(#paint0_linear_1_2)"/><path d="M33.75 42.64C26.9 42.64 20.1 44.47 14.21 47.89C11.35 49.55 8.72 51.61 6.38 53.9L5.92 55.15L2.95 63.27C6.04 58.01 10.49 53.61 15.75 50.58C21.18 47.44 27.41 45.72 33.75 45.72C36.61 45.72 39.47 46.07 42.21 46.75C43.07 46.98 43.87 47.21 44.67 47.49L43.36 43.84C40.21 43.04 37.01 42.64 33.75 42.64Z" fill="url(#paint1_linear_1_2)"/><path d="M60.5 53.44C59.36 51.95 57.53 50.69 56.1 49.72C53.02 47.67 50.16 46.18 47.07 45.04L48.5 48.98C50.44 49.89 52.39 50.98 54.39 52.3C55.64 53.15 57.19 54.24 58.04 55.32C58.44 55.84 58.79 56.7 58.79 57.55H61.87C61.93 56.12 61.42 54.58 60.5 53.44Z" fill="url(#paint2_linear_1_2)"/><path d="M62.5 24.46H60.85L59.25 20.86H51.82L50.22 24.46H48.62L54.79 10.74H56.22L62.5 24.46ZM55.59 12.57L52.5 19.49H58.67L55.59 12.57Z" fill="white"/><path d="M74.5 18.69C74.5 19.66 74.39 20.58 74.1 21.32C73.82 22.06 73.42 22.69 72.96 23.2C72.45 23.72 71.88 24.06 71.19 24.35C70.5 24.58 69.7 24.75 68.85 24.75C67.99 24.75 67.25 24.63 66.56 24.35C65.87 24.12 65.25 23.72 64.79 23.2C64.27 22.69 63.93 22.06 63.65 21.38C63.36 20.69 63.25 19.77 63.25 18.8V10.86H64.79V18.69C64.79 20.18 65.13 21.32 65.87 22.06C66.62 22.86 67.65 23.26 68.96 23.26C70.22 23.26 71.19 22.86 71.93 22.12C72.68 21.38 73.02 20.23 73.02 18.75V10.86H74.56V18.69H74.5Z" fill="white"/><path d="M82.11 24.46H80.56V12.29H75.99V10.86H86.68V12.29H82.11V24.46Z" fill="white"/><path d="M100.28 20.35C99.94 21.2 99.48 21.95 98.85 22.58C98.22 23.2 97.54 23.72 96.68 24.12C95.82 24.52 94.85 24.69 93.82 24.69C92.79 24.69 91.82 24.52 91.02 24.12C90.22 23.72 89.42 23.26 88.85 22.58C88.28 21.89 87.77 21.2 87.42 20.35C87.08 19.49 86.91 18.57 86.91 17.66C86.91 16.69 87.08 15.83 87.42 14.97C87.77 14.12 88.22 13.37 88.85 12.74C89.48 12.12 90.17 11.6 91.02 11.2C91.88 10.8 92.85 10.63 93.88 10.63C94.91 10.63 95.88 10.8 96.68 11.2C97.54 11.6 98.28 12.06 98.85 12.74C99.48 13.37 99.94 14.12 100.28 14.97C100.62 15.83 100.8 16.75 100.8 17.66C100.8 18.63 100.62 19.49 100.28 20.35ZM98.8 15.49C98.51 14.8 98.17 14.23 97.65 13.72C97.2 13.2 96.62 12.8 95.94 12.52C95.25 12.23 94.57 12.06 93.77 12.06C92.97 12.06 92.28 12.23 91.59 12.52C90.97 12.8 90.39 13.2 89.94 13.72C89.48 14.23 89.08 14.8 88.85 15.49C88.57 16.17 88.45 16.92 88.45 17.66C88.45 18.4 88.57 19.15 88.85 19.83C89.14 20.52 89.48 21.09 89.99 21.6C90.45 22.12 91.02 22.52 91.71 22.8C92.34 23.09 93.08 23.26 93.88 23.26C94.68 23.26 95.37 23.09 96.05 22.8C96.68 22.52 97.25 22.12 97.71 21.6C98.17 21.09 98.57 20.52 98.8 19.83C99.02 19.15 99.2 18.4 99.2 17.66C99.2 16.92 99.08 16.17 98.8 15.49Z" fill="white"/><path d="M109.54 20.75H109.48L104.51 13.49V24.46H103.02V10.86H104.57L109.54 18.29L114.51 10.86H116.06V24.46H114.45V13.49L109.54 20.75Z" fill="white"/><path d="M131.37 24.46H129.71L128.11 20.86H120.68L119.08 24.46H117.48L123.66 10.74H125.08L131.37 24.46ZM124.46 12.57L121.31 19.55H127.48L124.46 12.57Z" fill="white"/><path d="M136.17 24.46H134.63V12.29H130.06V10.86H140.75V12.29H136.17V24.46Z" fill="white"/><path d="M143.94 10.86V24.46H142.4V10.86H143.94Z" fill="white"/><path d="M159.6 20.35C159.26 21.2 158.81 21.95 158.18 22.58C157.55 23.2 156.86 23.72 156 24.12C155.15 24.52 154.18 24.69 153.15 24.69C152.12 24.69 151.15 24.52 150.35 24.12C149.55 23.72 148.75 23.26 148.18 22.58C147.6 21.89 147.09 21.2 146.75 20.35C146.4 19.49 146.23 18.57 146.23 17.66C146.23 16.69 146.4 15.83 146.75 14.97C147.09 14.12 147.55 13.37 148.18 12.74C148.8 12.12 149.49 11.6 150.35 11.2C151.2 10.8 152.18 10.63 153.2 10.63C154.23 10.63 155.21 10.8 156 11.2C156.86 11.6 157.6 12.06 158.18 12.74C158.81 13.37 159.26 14.12 159.6 14.97C159.95 15.83 160.12 16.75 160.12 17.66C160.12 18.63 159.95 19.49 159.6 20.35ZM158.12 15.49C157.83 14.8 157.49 14.23 156.98 13.72C156.52 13.2 155.95 12.8 155.26 12.52C154.58 12.23 153.89 12.06 153.09 12.06C152.29 12.06 151.6 12.23 150.92 12.52C150.29 12.8 149.72 13.2 149.26 13.72C148.8 14.23 148.4 14.8 148.18 15.49C147.89 16.17 147.78 16.92 147.78 17.66C147.78 18.4 147.89 19.15 148.18 19.83C148.46 20.52 148.8 21.09 149.32 21.6C149.78 22.12 150.35 22.52 151.03 22.8C151.66 23.09 152.4 23.26 153.2 23.26C154 23.26 154.69 23.09 155.38 22.8C156 22.52 156.58 22.12 157.03 21.6C157.49 21.09 157.89 20.52 158.12 19.83C158.35 19.15 158.52 18.4 158.52 17.66C158.52 16.92 158.41 16.17 158.12 15.49Z" fill="white"/><path d="M172.29 10.86H173.78V24.46H172.58L163.78 13.32V24.46H162.29V10.86H163.72L172.29 21.78V10.86Z" fill="white"/><path d="M66.85 31.38H69.59L75.42 45.09H72.28L71.02 42.06H65.3L64.05 45.09H61.02L66.85 31.38ZM69.99 39.38L68.16 34.98L66.33 39.38H69.99Z" fill="white"/><path d="M76.39 31.43H79.13L85.54 39.84V31.43H88.51V45.04H85.94L79.36 36.41V45.04H76.39V31.43Z" fill="white"/><path d="M94.57 39.72L89.31 31.43H92.79L96.05 36.92L99.37 31.43H102.74L97.54 39.66V45.09H94.57V39.72Z" fill="white"/><path d="M103.08 31.43H106.28L109.08 40.64L112.11 31.38H114.68L117.71 40.64L120.51 31.43H123.66L119.03 45.15H116.4L113.43 36.24L110.34 45.15H107.71L103.08 31.43Z" fill="white"/><path d="M124.74 31.43H127.71V36.81H133.26V31.43H136.23V45.04H133.26V39.55H127.71V45.04H124.74V31.43Z" fill="white"/><path d="M138.63 31.43H148.86V34.12H141.54V36.86H147.95V39.55H141.54V42.41H148.92V45.09H138.57V31.43H138.63Z" fill="white"/><path d="M150.8 31.43H157.03C158.75 31.43 160.06 31.89 160.98 32.81C161.78 33.61 162.12 34.63 162.12 35.89V35.95C162.12 37.03 161.84 37.95 161.32 38.64C160.81 39.32 160.06 39.84 159.21 40.18L162.52 45.04H159.03L156.12 40.69H156.06H153.78V45.04H150.8V31.43ZM156.81 38.06C157.55 38.06 158.12 37.89 158.52 37.55C158.92 37.21 159.09 36.75 159.09 36.18V36.12C159.09 35.49 158.86 34.98 158.46 34.63C158.06 34.29 157.49 34.12 156.75 34.12H153.78V38.01H156.81V38.06Z" fill="white"/><path d="M163.89 31.43H174.12V34.12H166.81V36.86H173.21V39.55H166.81V42.41H174.18V45.09H163.84V31.43H163.89Z" fill="white"/><defs><linearGradient id="paint0_linear_1_2" x1="-0" y1="32.05" x2="61.91" y2="32.05" gradientUnits="userSpaceOnUse"><stop stop-color="#FCDA00"/><stop offset="0.04" stop-color="#FACE0C"/><stop offset="0.15" stop-color="#F6AF1C"/><stop offset="0.27" stop-color="#F39521"/><stop offset="0.39" stop-color="#F08023"/><stop offset="0.52" stop-color="#EF6F24"/><stop offset="0.65" stop-color="#EE6225"/><stop offset="0.8" stop-color="#ED5925"/><stop offset="0.99" stop-color="#ED5625"/><stop offset="1" stop-color="#ED5625"/></linearGradient><linearGradient id="paint1_linear_1_2" x1="2.94" y1="52.95" x2="44.62" y2="52.95" gradientUnits="userSpaceOnUse"><stop offset="0.28" stop-color="white" stop-opacity="0"/><stop offset="0.33" stop-color="#ECEBEB" stop-opacity="0.01"/><stop offset="0.4" stop-color="#CCC9C9" stop-opacity="0.03"/><stop offset="0.49" stop-color="#9F9B9B" stop-opacity="0.05"/><stop offset="0.6" stop-color="#696565" stop-opacity="0.07"/><stop offset="0.71" stop-color="#353232" stop-opacity="0.1"/><stop offset="0.79" stop-color="#0A0608" stop-opacity="0.12"/><stop offset="0.91" stop-color="#0A0608" stop-opacity="0.23"/></linearGradient><linearGradient id="paint2_linear_1_2" x1="47.04" y1="51.3" x2="61.91" y2="51.3" gradientUnits="userSpaceOnUse"><stop offset="0.11" stop-color="#0A0608" stop-opacity="0.23"/><stop offset="0.24" stop-color="#0A0608" stop-opacity="0.2"/><stop offset="0.31" stop-color="#1A1718" stop-opacity="0.18"/><stop offset="0.44" stop-color="#3B3737" stop-opacity="0.14"/><stop offset="0.62" stop-color="#757070" stop-opacity="0.08"/><stop offset="0.85" stop-color="#E4E2E2" stop-opacity="0.01"/><stop offset="0.88" stop-color="white" stop-opacity="0"/></linearGradient></defs></svg>