<svg height="1em" style="flex:none;line-height:1" viewBox="0 0 24 24" width="1em" xmlns="http://www.w3.org/2000/svg"><title>AzureAI</title><path clip-rule="evenodd" d="M16.23 0c.713 0 1.34.551 1.57 1.33.227.78 1.55 5.59 1.55 5.59v9.56h-4.81L14.64 0h1.59z" fill="url(#lobe-icons-azure-ai-0-_R_0_)" fill-rule="evenodd"></path><path d="M23.3 7.47c0-.34-.275-.6-.6-.6h-2.83a3.62 3.62 0 00-3.61 3.62v6h3.44a3.62 3.62 0 3.61-3.61V7.47z" fill="url(#lobe-icons-azure-ai-1-_R_0_)"></path><path clip-rule="evenodd" d="M16.23 0a.982.98 0 00-.989.99l-.097 18.2A4.81 4.81 0 110.33 24H1.6a.597.6 0 01-.567-.794l7-19.98A4.82 4.82 0 0112.57 0h3.68-.016z" fill="url(#lobe-icons-azure-ai-2-_R_0_)" fill-rule="evenodd"></path><defs><linearGradient gradientUnits="userSpaceOnUse" id="lobe-icons-azure-ai-0-_R_0_" x1="18.24" x2="14.19" y1="16.84" y2=".616"><stop stop-color="#712575"></stop><stop offset=".09" stop-color="#9A2884"></stop><stop offset=".18" stop-color="#BF2C92"></stop><stop offset=".27" stop-color="#DA2E9C"></stop><stop offset=".34" stop-color="#EB30A2"></stop><stop offset=".4" stop-color="#F131A5"></stop><stop offset=".5" stop-color="#EC30A3"></stop><stop offset=".61" stop-color="#DF2F9E"></stop><stop offset=".72" stop-color="#C92D96"></stop><stop offset=".83" stop-color="#AA2A8A"></stop><stop offset=".95" stop-color="#83267C"></stop><stop offset="1" stop-color="#712575"></stop></linearGradient><linearGradient gradientUnits="userSpaceOnUse" id="lobe-icons-azure-ai-1-_R_0_" x1="19.78" x2="19.78" y1=".34" y2="23.22"><stop stop-color="#DA7ED0"></stop><stop offset=".08" stop-color="#B17BD5"></stop><stop offset=".19" stop-color="#8778DB"></stop><stop offset=".3" stop-color="#6276E1"></stop><stop offset=".41" stop-color="#4574E5"></stop><stop offset=".54" stop-color="#2E72E8"></stop><stop offset=".67" stop-color="#1D71EB"></stop><stop offset=".81" stop-color="#1471EC"></stop><stop offset="1" stop-color="#1171ED"></stop></linearGradient><linearGradient gradientUnits="userSpaceOnUse" id="lobe-icons-azure-ai-2-_R_0_" x1="18.4" x2="3.24" y1=".859" y2="25.18"><stop stop-color="#DA7ED0"></stop><stop offset=".05" stop-color="#B77BD4"></stop><stop offset=".11" stop-color="#9079DA"></stop><stop offset=".18" stop-color="#6E77DF"></stop><stop offset=".25" stop-color="#5175E3"></stop><stop offset=".33" stop-color="#3973E7"></stop><stop offset=".42" stop-color="#2772E9"></stop><stop offset=".54" stop-color="#1A71EB"></stop><stop offset=".68" stop-color="#1371EC"></stop><stop offset="1" stop-color="#1171ED"></stop></linearGradient></defs></svg>