<svg width="96" height="96" viewBox="0 0 96 96" fill="none" xmlns="http://www.w3.org/2000/svg"><g clip-path="url(#clip0_4303_1230)"><g clip-path="url(#clip1_4303_1230)"><path d="M52.51 3C55.37 3 58.09 4.22 59.98 6.36L82.66 31.86C88.91 38.9 85 50.07 75.73 51.66L21.5 61L28.3 53.31C30.98 50.28 30.98 45.72 28.29 42.7L7.79 19.64C2.06 13.19 6.64 3 15.27 3H52.51Z" fill="url(#paint0_linear_4303_1230)"/><path d="M15.27 93C6.64 93 2.06 82.81 7.79 76.36L59.09 18.64C62.46 14.85 62.46 9.15 59.09 5.36L57 3L91.09 41.36C94.46 45.15 94.46 50.85 91.09 54.64L59.98 89.64C58.09 91.78 55.37 93 52.51 93H15.27Z" fill="url(#paint1_linear_4303_1230)"/><path d="M15.27 93C6.64 93 2.06 82.81 7.79 76.36L59.09 18.64C62.46 14.85 62.46 9.15 59.09 5.36L57 3L91.09 41.36C94.46 45.15 94.46 50.85 91.09 54.64L59.98 89.64C58.09 91.78 55.37 93 52.51 93H15.27Z" fill="url(#paint2_linear_4303_1230)"/><path d="M38.36 93C33.18 93 30.44 86.88 33.88 83.01L75.09 36.64C78.46 32.85 78.46 27.15 75.09 23.36L71 18.75L91.09 41.36C94.46 45.15 94.46 50.85 91.09 54.64L59.98 89.64C58.09 91.78 55.37 93 52.51 93H38.36Z" fill="url(#paint3_linear_4303_1230)"/></g></g><defs><linearGradient id="paint0_linear_4303_1230" x1="48" y1="31.5" x2="14" y2="-2.5" gradientUnits="userSpaceOnUse"><stop stop-color="#102784"/><stop offset="0.27" stop-color="#1B44B1"/><stop offset="1" stop-color="#2764E7"/></linearGradient><linearGradient id="paint1_linear_4303_1230" x1="76.5" y1="25" x2="11.5" y2="91.5" gradientUnits="userSpaceOnUse"><stop stop-color="#0FAFFF"/><stop offset="0.18" stop-color="#4894FE"/><stop offset="1" stop-color="#2764E7"/></linearGradient><linearGradient id="paint2_linear_4303_1230" x1="28.5" y1="72" x2="38.5" y2="83.5" gradientUnits="userSpaceOnUse"><stop stop-color="#2764E7" stop-opacity="0"/><stop offset="1" stop-color="#2052CB"/></linearGradient><linearGradient id="paint3_linear_4303_1230" x1="89" y1="38.5" x2="43" y2="90.5" gradientUnits="userSpaceOnUse"><stop stop-color="#6CE0FF"/><stop offset="0.21" stop-color="#66C0FF"/><stop offset="1" stop-color="#58AAFE"/></linearGradient><clipPath id="clip0_4303_1230"><rect width="96" height="96" fill="white"/></clipPath><clipPath id="clip1_4303_1230"><rect width="96" height="96" fill="white"/></clipPath></defs></svg>