<!-- created by svgstack.com | Attribution is required. --><svg width="401" height="148" viewBox="0 0 401 148" fill="none" xmlns="http://www.w3.org/2000/svg"><g clip-path="url(#clip0_105_993)"><path d="M0.920166 0.275391H148.047V147.402H0.920166V0.275391ZM132.745 132.101V15.5765H16.2213V132.101H132.745ZM29.4627 38.234V82.6662C29.4627 102.97 40.6443 115.034 59.4765 115.034C78.8972 115.034 90.0788 102.97 90.0788 82.6662V38.234H74.7776V82.6662C74.7776 94.1421 69.7753 100.616 59.7707 100.616C49.1776 100.616 44.4696 93.8478 44.4696 82.6662V38.234H29.4627ZM109.794 47.3558C115.09 47.3558 119.21 43.5306 119.21 38.234C119.21 32.6432 115.385 28.8179 109.794 28.8179C104.497 28.8179 100.378 32.6432 100.378 38.234C100.378 43.5306 104.497 47.3558 109.794 47.3558ZM102.143 54.4179V114.151H117.444V54.4179H102.143ZM193.362 89.7283C209.84 89.7283 220.727 80.0179 220.727 63.834C220.727 48.2386 210.134 38.234 193.362 38.234H164.525V114.446H179.826V90.0225H193.362V89.7283ZM191.596 77.6639H179.532V50.5926H191.596C200.424 50.5926 205.132 55.5949 205.132 63.834C205.132 72.6616 200.424 77.6639 191.596 77.6639ZM225.729 84.4317C225.729 102.381 237.205 115.034 253.389 115.034C263.099 115.034 269.279 111.503 272.81 105.912V114.446H288.111V54.4179H272.81V63.834C268.985 57.6547 262.805 53.8294 253.389 53.8294C236.911 53.8294 225.729 66.7765 225.729 84.4317ZM272.81 84.4317C272.81 94.7306 266.336 101.498 256.92 101.498C246.621 101.498 241.325 94.1421 241.325 84.4317C241.325 73.8386 247.21 67.0708 256.92 67.0708C266.631 67.0708 272.81 74.1329 272.81 84.4317ZM326.364 101.204C320.479 101.204 319.008 98.5559 319.008 93.2593V67.365H332.249V54.4179H319.008V37.9398H303.706V54.4179H296.644V67.365H303.706V93.2593C303.706 107.383 309.886 114.151 324.598 114.151H332.543V101.204H326.364ZM356.083 62.9513V34.703H340.782V114.446H356.083V82.6662C356.083 72.3673 361.38 66.188 370.502 66.188C379.329 66.188 384.037 72.0731 384.037 81.1949V114.151H399.339V79.7237C399.339 64.1283 388.157 53.8294 374.033 53.8294C365.205 53.8294 359.614 57.0662 356.083 62.9513Z" fill="#FA4616"/></g><defs><clipPath id="clip0_105_993"><rect width="400" height="147.126" fill="white" transform="translate(0.920166 0.275391)"/></clipPath></defs></svg> 